<svg id="Calque_1" data-name="Calque 1" xmlns="http://www.w3.org/2000/svg" viewBox="0 0 595.28 595.28"><defs><style>.cls-1,.cls-2,.cls-4{fill:none;}.cls-1,.cls-2{stroke:#000;}.cls-1,.cls-2,.cls-3,.cls-4{stroke-miterlimit:10;}.cls-1{stroke-width:2px;}.cls-2{stroke-width:4px;}.cls-3{fill:#00a1f9;}.cls-3,.cls-4{stroke:#1d1d1b;stroke-width:0.5px;}.cls-5{font-size:56px;font-family:MuseoSans-900, Museo Sans;font-weight:900;letter-spacing:-0.02em;}.cls-6{letter-spacing:-0.02em;}.cls-7{letter-spacing:-0.02em;}.cls-8{letter-spacing:-0.02em;}.cls-9{letter-spacing:-0.01em;}.cls-10{letter-spacing:-0.02em;}</style></defs><path class="cls-1" d="M301.6,223.37c19.39-104.47,139-164.64,139-164.64"/><path class="cls-1" d="M401.85,125.86c31.07-12.48,121.46,67.9,130.7,101.85"/><path class="cls-1" d="M426.57,85.61c54.66-8,123.63,82.59,140.52,116.1"/><path class="cls-1" d="M434.67,62.83c47.92-26.1,158.12,99.68,147.85,117.81"/><path class="cls-2" d="M258.91,252.4c-13.65-5.55,91,48.38,206.75,8.59S611.1,156.86,572.84,116.72,444.4,23.41,444.4,23.41"/><path d="M513.7,265.88l58.11,23.36,16.44,6.61c1.34.54,1.93-1.63.6-2.17l-58.12-23.36-16.43-6.61c-1.35-.54-1.93,1.63-.6,2.17Z"/><path d="M483.6,283.31l-.83,62.95a1.13,1.13,0,0,0,2.25,0l.83-62.95a1.13,1.13,0,0,0-2.25,0Z"/><path d="M491.26,279.81,497.37,305c.34,1.41,2.51.81,2.17-.6l-6.11-25.23c-.34-1.4-2.51-.81-2.17.6Z"/><path d="M507.1,272.06l21.2,15c1.19.83,2.31-1.12,1.14-1.95l-21.21-15c-1.18-.84-2.31,1.11-1.13,1.94Z"/><path d="M499.7,276.38l28.4,42.2c.8,1.2,2.75.07,1.94-1.13l-28.39-42.21c-.81-1.19-2.76-.07-1.95,1.14Z"/><path class="cls-1" d="M324.77,217.19C338,258.29,402.56,274,402.56,274"/><path class="cls-1" d="M354.29,193.06c24.16,52.58,95.88,71.14,95.88,71.14"/><path class="cls-1" d="M384.9,159.13c49.7,76.49,116,87.24,116,87.24"/><path class="cls-1" d="M289.11,263.5C439.23,229.4,479.29,45.92,479.29,45.92"/><path class="cls-1" d="M334.07,272.69C479,240.29,507.74,64.58,507.74,64.58"/><path class="cls-1" d="M274,238.17C300.12,117.47,435.3,37.44,439.93,40.86"/><path class="cls-1" d="M331,200.29c7.16-53.42,93.65-117.14,93.65-117.14"/><path class="cls-1" d="M391.63,275.73C505.37,258.84,537.56,86.12,538.91,87"/><path class="cls-1" d="M455.8,263.5c90.79-22.89,109.81-155.23,109.81-155.23"/><path class="cls-3" d="M369.73,80.23a25.52,25.52,0,0,0,7.21,13.84l.18.16s.05,0,.09,0c-.93-4.8.14-8.55,3.28-11.29a13.42,13.42,0,0,0,1.12,4.11c.07.15.1.34.26.44-.43-6.45,3.27-9.9,6.1-10.46a13.09,13.09,0,0,0,.12,4.41c0,.29,0,.31.18.33,1.4-5.42,6.06-7.7,10.22-6.09a1.15,1.15,0,0,1-.2.45,33.16,33.16,0,0,0-3.44,19.43c.13,1.22.35,2.44.59,3.65.07.37.17.38.41.24,4.22-2.39,9.81.24,12.09,5.71a12.43,12.43,0,0,1,.14,9.84.74.74,0,0,0,0,.68,25.18,25.18,0,0,0,3.24,5.21c.08.1.24.2.2.35s-.23.07-.36,0a9.5,9.5,0,0,1-5.26-3.16,21.73,21.73,0,0,0,1.25,2.87,27.29,27.29,0,0,0,1.6,2.67,16.45,16.45,0,0,1-2.32-1.25,20.21,20.21,0,0,1-3.12-2.48.5.5,0,0,0-.56-.17c-6.52,2-13,.86-19.29-3.22a30.35,30.35,0,0,1-11.11-13.42,39.71,39.71,0,0,1-3-9.93,35.52,35.52,0,0,1,.17-12.81c0-.11,0-.23.05-.34S369.73,80.14,369.73,80.23Z"/><path class="cls-3" d="M388.27,81.81c0,.09,0,.23-.12.07a.55.55,0,0,1-.06-.4C388.17,81.58,388.13,81.75,388.27,81.81Z"/><path class="cls-3" d="M369.73,80.23s0-.13-.12-.14,0-.17.07-.14A.22.22,0,0,1,369.73,80.23Z"/><path class="cls-3" d="M353.3,96.75a25.42,25.42,0,0,0,7.21,13.83l.18.17.09,0c-.93-4.81.13-8.55,3.28-11.3a13.07,13.07,0,0,0,1.12,4.11c.07.15.1.35.25.44-.42-6.45,3.27-9.9,6.11-10.46a13.15,13.15,0,0,0,.12,4.42c0,.28,0,.3.17.32,1.41-5.41,6.07-7.69,10.23-6.09a1.37,1.37,0,0,1-.2.46,33.05,33.05,0,0,0-3.44,19.42c.13,1.23.35,2.44.59,3.66.07.36.17.37.41.24,4.22-2.4,9.81.23,12.08,5.71a12.37,12.37,0,0,1,.15,9.83.77.77,0,0,0,0,.68,25.78,25.78,0,0,0,3.24,5.21c.09.11.25.21.2.36s-.23.07-.35,0a9.41,9.41,0,0,1-5.26-3.16,20,20,0,0,0,1.25,2.87,25.45,25.45,0,0,0,1.6,2.67A15,15,0,0,1,390,139a19.7,19.7,0,0,1-3.13-2.48.5.5,0,0,0-.55-.17c-6.52,2-13,.87-19.3-3.21A30.45,30.45,0,0,1,356,119.69a39.86,39.86,0,0,1-3-9.93,35.57,35.57,0,0,1,.17-12.82l.06-.33C353.3,96.56,353.3,96.65,353.3,96.75Z"/><path class="cls-3" d="M371.83,98.32c0,.1,0,.23-.12.07a.52.52,0,0,1,0-.39C371.73,98.09,371.7,98.27,371.83,98.32Z"/><path class="cls-3" d="M353.3,96.75s-.05-.14-.12-.14,0-.18.06-.15S353.33,96.64,353.3,96.75Z"/><path class="cls-3" d="M422.2,90.36a12.16,12.16,0,0,0-9-3.24h-.16l-.06,0c2.19,2,2.85,4.49,1.94,7.6a6,6,0,0,0-2.06-1.51c-.1,0-.18-.12-.3-.09a7.09,7.09,0,0,1,0,8.7A6.11,6.11,0,0,0,411,99.65c-.11-.14-.12-.14-.21-.08a7.49,7.49,0,0,1-3.91,8.67.8.8,0,0,1,0-.34A18.5,18.5,0,0,0,402.19,96a18.25,18.25,0,0,0-1.6-1.57c-.16-.15-.23-.1-.32.1-1.66,3.52-5.84,5.18-9,3.59a6.15,6.15,0,0,1-3.45-5,.37.37,0,0,0-.26-.33,12.24,12.24,0,0,0-3.68-.94c-.09,0-.22,0-.24-.08s.11-.16.19-.21A6.82,6.82,0,0,1,388,90.36a8.9,8.9,0,0,0-1.72-.81,12.16,12.16,0,0,0-1.85-.51,11.15,11.15,0,0,1,1.79-.61,13,13,0,0,1,2.68-.41.46.46,0,0,0,.39-.21A21.15,21.15,0,0,1,401.66,79a16.47,16.47,0,0,1,11.11.92,17.67,17.67,0,0,1,9.46,10.21c0,.07.06.14.08.2S422.23,90.42,422.2,90.36Z"/><path class="cls-3" d="M410.78,99.57s-.06-.13.05-.1a.23.23,0,0,1,.16.18C410.92,99.63,410.88,99.53,410.78,99.57Z"/><path class="cls-3" d="M422.2,90.36s.07,0,.11,0,.05.1,0,.11S422.21,90.44,422.2,90.36Z"/><path class="cls-3" d="M441.58,54.26a12.15,12.15,0,0,0-9-3.24h-.17l-.06,0c2.19,2,2.85,4.49,1.94,7.6a6,6,0,0,0-2.06-1.51c-.09,0-.18-.12-.3-.09a7.09,7.09,0,0,1,0,8.7,6.11,6.11,0,0,0-1.59-2.21c-.11-.14-.12-.14-.21-.08a7.49,7.49,0,0,1-3.91,8.67,1,1,0,0,1,0-.34,18.5,18.5,0,0,0-4.64-11.89,18.25,18.25,0,0,0-1.6-1.57c-.16-.15-.23-.1-.32.1-1.66,3.52-5.84,5.18-9,3.59a6.15,6.15,0,0,1-3.45-5,.4.4,0,0,0-.25-.34,12.67,12.67,0,0,0-3.69-.93c-.09,0-.22,0-.24-.08s.11-.16.19-.21a6.82,6.82,0,0,1,4.17-1.21,8.63,8.63,0,0,0-1.72-.81,11.55,11.55,0,0,0-1.85-.51,11.15,11.15,0,0,1,1.79-.61,12.34,12.34,0,0,1,2.68-.41.45.45,0,0,0,.39-.22A21.17,21.17,0,0,1,421,42.94a16.47,16.47,0,0,1,11.11.92,17.59,17.59,0,0,1,9.46,10.21c0,.07.06.14.08.2S441.61,54.32,441.58,54.26Z"/><path class="cls-3" d="M430.16,63.47s-.06-.13,0-.1a.23.23,0,0,1,.16.18C430.3,63.53,430.26,63.43,430.16,63.47Z"/><path class="cls-3" d="M441.58,54.26s.07.05.11,0,.05.1,0,.11S441.59,54.34,441.58,54.26Z"/><path class="cls-3" d="M398,126.35a23,23,0,0,0-13-.29l-.2.06-.06,0c3.92,1.15,6.31,3.24,7.19,6.34a12.61,12.61,0,0,0-3.48-.77c-.14,0-.3-.06-.42,0,5,2.09,6.15,5.82,5.5,7.91a11.86,11.86,0,0,0-3.32-1.54c-.23-.09-.24-.09-.31,0,3.51,2.93,3.46,6.87.72,9.05a.91.91,0,0,1-.26-.3,29,29,0,0,0-13.18-9.44c-1-.36-1.95-.66-2.94-.95-.3-.09-.34,0-.33.18.21,3.7-3.83,6.45-8.76,6a11.19,11.19,0,0,1-7.37-3.52.65.65,0,0,0-.52-.23,23.1,23.1,0,0,0-5.08.24c-.11,0-.25.09-.34,0s0-.18.09-.25a7.63,7.63,0,0,1,4.32-2.34,18.74,18.74,0,0,0-2.6-.22,23,23,0,0,0-2.59.08,12.08,12.08,0,0,1,1.8-1.08,15.69,15.69,0,0,1,3-1.17c.2-.06.3-.14.33-.31,1-5.06,4.19-8.95,9.59-11.66a26.61,26.61,0,0,1,14.12-2.45,36.41,36.41,0,0,1,8.51,1.65,32.13,32.13,0,0,1,9.48,4.83,1.88,1.88,0,0,0,.23.16C398.14,126.42,398.07,126.38,398,126.35Z"/><path class="cls-3" d="M389.92,138.1c-.07,0-.16-.1,0-.1a.5.5,0,0,1,.32.11C390.13,138.12,390,138,389.92,138.1Z"/><path class="cls-3" d="M398,126.35c.05,0,.12,0,.15,0s.12.08.08.1A.21.21,0,0,1,398,126.35Z"/><path class="cls-3" d="M401.61,135.7a23.19,23.19,0,0,0-13-.29l-.19.06-.07,0c3.93,1.16,6.32,3.24,7.19,6.34a12.23,12.23,0,0,0-3.48-.76.75.75,0,0,0-.42,0c5,2.08-2.39,2.4-3,4.49-1-.66.77,5.37-.46,5a36.28,36.28,0,0,0-4.53.92c3.51,2.93,4.2-5,1.46-2.82-.13-.08-.19,6.14-.27,6-3.15-4.16,1.62-5.85-4-8-1-.37-1.94-.67-2.94-1-.29-.08-.34,0-.33.19.21,3.69-3.83,6.44-8.75,5.94a11.15,11.15,0,0,1-7.38-3.52.66.66,0,0,0-.51-.23,23.16,23.16,0,0,0-5.09.24c-.11,0-.24.09-.34,0s0-.19.1-.26a7.69,7.69,0,0,1,4.31-2.34,20.27,20.27,0,0,0-2.6-.22,23,23,0,0,0-2.59.08,13.61,13.61,0,0,1,1.8-1.08,17,17,0,0,1,3-1.17c.2,0,.3-.13.33-.31,1-5.06,4.19-8.95,9.59-11.65A26.74,26.74,0,0,1,383.55,129a37.05,37.05,0,0,1,8.51,1.66,32.17,32.17,0,0,1,9.47,4.82l.23.16C401.75,135.77,401.68,135.74,401.61,135.7Z"/><path class="cls-3" d="M393.53,147.46c-.07,0-.16-.1,0-.11a.48.48,0,0,1,.32.11C393.74,147.47,393.62,147.39,393.53,147.46Z"/><path class="cls-3" d="M401.61,135.7c.05,0,.12,0,.15,0s.12.08.08.1S401.68,135.76,401.61,135.7Z"/><path class="cls-3" d="M347.44,199.16a25.42,25.42,0,0,0-7-13.93l-.18-.18-.09,0c.87,4.82-.25,8.55-3.42,11.25a13.44,13.44,0,0,0-1.07-4.12c-.07-.16-.1-.35-.25-.45.34,6.46-3.4,9.86-6.25,10.38a13.13,13.13,0,0,0-.06-4.42c0-.28,0-.3-.17-.33-1.47,5.4-6.17,7.61-10.31,6a1.55,1.55,0,0,1,.21-.45,33,33,0,0,0,3.7-19.38c-.11-1.22-.31-2.44-.53-3.66-.07-.36-.17-.38-.41-.24-4.26,2.33-9.81-.38-12-5.88a12.37,12.37,0,0,1,0-9.84.77.77,0,0,0,0-.68,25.46,25.46,0,0,0-3.17-5.25c-.08-.11-.24-.21-.19-.36s.23-.07.35,0a9.47,9.47,0,0,1,5.22,3.23,20.1,20.1,0,0,0-1.21-2.88,25.36,25.36,0,0,0-1.57-2.7,15,15,0,0,1,2.31,1.29,19.71,19.71,0,0,1,3.09,2.52.49.49,0,0,0,.55.17c6.55-1.88,13-.68,19.25,3.49a30.44,30.44,0,0,1,10.92,13.57,39.69,39.69,0,0,1,2.87,10,35.3,35.3,0,0,1-.34,12.82l-.06.33C347.43,199.35,347.43,199.25,347.44,199.16Z"/><path class="cls-3" d="M328.7,199.63c0-.1,0-.23.12-.07a.5.5,0,0,1,0,.4C328.79,199.86,328.83,199.69,328.7,199.63Z"/><path class="cls-3" d="M359.25,188.41a25.41,25.41,0,0,0-7-13.93l-.18-.18-.09,0c.86,4.82-.25,8.55-3.43,11.25a13.43,13.43,0,0,0-1.06-4.12c-.07-.16-.1-.35-.25-.45.34,6.46-3.41,9.86-6.25,10.38a13.13,13.13,0,0,0-.06-4.42c0-.28,0-.3-.17-.33-1.48,5.4-6.17,7.61-10.31,6a1.17,1.17,0,0,1,.21-.45,33.16,33.16,0,0,0,3.7-19.38c-.11-1.22-.32-2.44-.54-3.66-.06-.36-.17-.38-.4-.24-4.26,2.33-9.81-.38-12-5.88a12.37,12.37,0,0,1,0-9.84.74.74,0,0,0,0-.68,25.91,25.91,0,0,0-3.17-5.25c-.08-.11-.24-.21-.2-.36s.24-.07.36,0a9.41,9.41,0,0,1,5.21,3.23,19,19,0,0,0-1.21-2.88,25.23,25.23,0,0,0-1.56-2.7,14.91,14.91,0,0,1,2.3,1.29,19.26,19.26,0,0,1,3.09,2.52.5.5,0,0,0,.56.17c6.54-1.88,13-.68,19.25,3.49a30.44,30.44,0,0,1,10.92,13.57,39.69,39.69,0,0,1,2.87,10,35.75,35.75,0,0,1-.34,12.82l-.06.33C359.25,188.6,359.25,188.5,359.25,188.41Z"/><path class="cls-3" d="M340.74,186.57c0-.09,0-.22.12-.07a.55.55,0,0,1,.05.4C340.84,186.8,340.87,186.63,340.74,186.57Z"/><path class="cls-3" d="M359.25,188.41c0,.05.05.13.12.14s0,.17-.07.14A.22.22,0,0,1,359.25,188.41Z"/><path class="cls-3" d="M327.86,194.13a23.22,23.22,0,0,0-11.69-5.73l-.2,0s0,0-.08,0c3.1,2.7,4.43,5.6,3.95,8.79A12.61,12.61,0,0,0,317,195c-.12-.07-.24-.18-.39-.17,3.67,4,3.22,7.89,1.79,9.52a12.25,12.25,0,0,0-2.4-2.8c-.17-.18-.19-.19-.28-.14,2,4.14.35,7.71-3,8.54a1,1,0,0,1-.11-.39,29.54,29.54,0,0,0-8.14-14.14c-.73-.73-1.5-1.42-2.29-2.1-.23-.2-.3-.17-.37,0-1.32,3.45-6.12,4.25-10.4,1.72a11.41,11.41,0,0,1-5.27-6.31.7.7,0,0,0-.38-.43,22.61,22.61,0,0,0-4.72-1.92c-.11,0-.26,0-.31-.14s.1-.15.19-.19a7.55,7.55,0,0,1,4.88-.31,18.5,18.5,0,0,0-2.28-1.3,22.7,22.7,0,0,0-2.38-1,11.49,11.49,0,0,1,2.08-.22,16,16,0,0,1,3.21.2.39.39,0,0,0,.43-.14c2.94-4.2,7.47-6.38,13.48-6.57a26.69,26.69,0,0,1,13.86,3.72,37,37,0,0,1,7.06,5.09,32.63,32.63,0,0,1,6.66,8.38,2,2,0,0,0,.14.25C328,194.25,327.91,194.19,327.86,194.13Z"/><path class="cls-3" d="M315.71,201.42c0-.06-.11-.16,0-.1a.49.49,0,0,1,.25.24C315.89,201.52,315.82,201.4,315.71,201.42Z"/><path class="cls-3" d="M327.86,194.13c.05,0,.1.06.15,0s.08.12,0,.12A.21.21,0,0,1,327.86,194.13Z"/><path class="cls-3" d="M314.78,206.52a15.68,15.68,0,0,0-7.83-3.84l-.13,0h-.05c2.07,1.81,3,3.75,2.64,5.89a8.34,8.34,0,0,0-1.9-1.45c-.09,0-.17-.12-.26-.11,2.45,2.67,2.15,5.28,1.19,6.37a8.2,8.2,0,0,0-1.61-1.88c-.11-.11-.12-.12-.18-.09,1.33,2.77.23,5.16-2,5.72a.92.92,0,0,1-.07-.26,19.82,19.82,0,0,0-5.45-9.47c-.49-.49-1-.95-1.53-1.41-.16-.13-.2-.11-.25,0-.88,2.31-4.1,2.85-7,1.15a7.62,7.62,0,0,1-3.53-4.22.46.46,0,0,0-.25-.28,15.3,15.3,0,0,0-3.17-1.29c-.07,0-.17,0-.2-.1s.07-.1.12-.12a5.08,5.08,0,0,1,3.27-.21,12,12,0,0,0-1.52-.87,15.7,15.7,0,0,0-1.6-.68,7.47,7.47,0,0,1,1.39-.15,10.48,10.48,0,0,1,2.15.13.24.24,0,0,0,.29-.09c2-2.81,5-4.27,9-4.4a18,18,0,0,1,9.27,2.49,25,25,0,0,1,4.73,3.41,21.92,21.92,0,0,1,4.46,5.61l.09.16C314.85,206.6,314.82,206.56,314.78,206.52Z"/><path class="cls-3" d="M306.65,211.4s-.07-.11,0-.06a.29.29,0,0,1,.16.15C306.77,211.47,306.72,211.38,306.65,211.4Z"/><path class="cls-3" d="M314.78,206.52s.07,0,.1,0,.05.09,0,.09S314.8,206.58,314.78,206.52Z"/><path class="cls-3" d="M294,233.93a16.29,16.29,0,0,0-1-8.77L293,225l0,0c-.4,2.74-1.55,4.54-3.5,5.41a8.68,8.68,0,0,0,.19-2.41.56.56,0,0,0,0-.29c-.92,3.53-3.25,4.67-4.67,4.42a8.11,8.11,0,0,0,.7-2.38c0-.15,0-.17,0-.21-1.6,2.63-4.17,3-5.84,1.31a.6.6,0,0,1,.17-.21,19.74,19.74,0,0,0,5-9.73c.15-.68.26-1.37.36-2.06,0-.21,0-.24-.15-.21-2.4.47-4.56-2-4.67-5.36a7.69,7.69,0,0,1,1.63-5.29.44.44,0,0,0,.1-.37,16.34,16.34,0,0,0-.61-3.4c0-.08-.08-.16,0-.23s.12,0,.17,0a5.18,5.18,0,0,1,1.92,2.7,14.15,14.15,0,0,0-.09-1.77,16.61,16.61,0,0,0-.29-1.74,8.82,8.82,0,0,1,.87,1.11,11.42,11.42,0,0,1,1,1.93c.06.13.12.19.24.19,3.39.2,6.22,2,8.47,5.41a18.63,18.63,0,0,1,2.87,9.3,25.74,25.74,0,0,1-.31,5.88,22.05,22.05,0,0,1-2.3,6.82,1.3,1.3,0,0,0-.08.17C294,234,294,234,294,233.93Z"/><path class="cls-3" d="M285.61,229.54s.05-.11.07,0a.29.29,0,0,1-.05.22C285.62,229.69,285.66,229.6,285.61,229.54Z"/><path class="cls-3" d="M294,233.93s0,.08,0,.1,0,.09-.06.06A.14.14,0,0,1,294,233.93Z"/><path class="cls-3" d="M340.49,121.29a14.46,14.46,0,0,0,7.1,3.75l.12,0h.05c-1.86-1.73-2.62-3.54-2.27-5.5A7.67,7.67,0,0,0,347.2,121c.08,0,.15.11.24.11-2.18-2.53-1.84-4.92-.92-5.9a7.32,7.32,0,0,0,1.43,1.78c.1.11.11.11.16.09-1.15-2.59-.07-4.76,2-5.21a.8.8,0,0,1,.07.24,18.13,18.13,0,0,0,4.75,8.87c.43.47.9.91,1.37,1.34.14.13.18.11.23,0,.88-2.1,3.85-2.5,6.44-.86a7,7,0,0,1,3.13,4,.46.46,0,0,0,.22.27,14.66,14.66,0,0,0,2.88,1.28c.07,0,.16,0,.19.09s-.07.09-.12.11a4.69,4.69,0,0,1-3,.1,13,13,0,0,0,1.37.84,13.84,13.84,0,0,0,1.45.67,7,7,0,0,1-1.28.1,9.72,9.72,0,0,1-2-.18.24.24,0,0,0-.27.07c-1.89,2.54-4.71,3.79-8.42,3.79a16.46,16.46,0,0,1-8.47-2.55,22.86,22.86,0,0,1-4.26-3.27,20.35,20.35,0,0,1-3.95-5.3,1.09,1.09,0,0,0-.08-.15C340.43,121.21,340.46,121.25,340.49,121.29Z"/><path class="cls-3" d="M348.11,117s.07.1,0,.06a.29.29,0,0,1-.14-.15C348,117,348.05,117,348.11,117Z"/><path class="cls-3" d="M340.49,121.29s-.06-.05-.09,0,0-.08,0-.08S340.47,121.23,340.49,121.29Z"/><path class="cls-3" d="M340.27,126.38a14.53,14.53,0,0,0,5.28,6.11l.1.07h.05c-1.12-2.29-1.19-4.26-.16-6a8.08,8.08,0,0,0,1.1,1.93c.06.07.1.16.18.19-1.13-3.16.05-5.26,1.25-5.84a7.6,7.6,0,0,0,.7,2.18c.05.14.06.15.12.14-.15-2.83,1.63-4.46,3.75-4.1a.51.51,0,0,1,0,.25,18.42,18.42,0,0,0,1.27,10c.24.6.51,1.18.8,1.76.08.17.13.16.22.07,1.56-1.63,4.48-.91,6.31,1.57a7.14,7.14,0,0,1,1.49,4.87.43.43,0,0,0,.12.33,14.78,14.78,0,0,0,2.22,2.25c.06,0,.14.07.14.15s-.09.06-.15.06a4.64,4.64,0,0,1-2.84-1,12.44,12.44,0,0,0,1,1.29,13.44,13.44,0,0,0,1.12,1.16,6.89,6.89,0,0,1-1.24-.38,9.84,9.84,0,0,1-1.77-.9.25.25,0,0,0-.28,0c-2.67,1.67-5.75,1.8-9.21.44a16.76,16.76,0,0,1-7-5.5,23.37,23.37,0,0,1-2.81-4.62,20.54,20.54,0,0,1-1.78-6.38l0-.18C340.24,126.29,340.25,126.33,340.27,126.38Z"/><path class="cls-3" d="M348.89,125.21c0,.05,0,.12,0,.05a.27.27,0,0,1-.08-.19S348.82,125.2,348.89,125.21Z"/><path class="cls-3" d="M340.27,126.38s0-.06-.08-.06,0-.08,0-.07A.14.14,0,0,1,340.27,126.38Z"/><path class="cls-3" d="M331.91,148a23.32,23.32,0,0,0,11.19,6.69l.2.05h.07c-2.87-3-3.95-6-3.22-9.09a12.66,12.66,0,0,0,2.66,2.39c.12.08.23.2.38.2-3.33-4.28-2.57-8.13-1-9.63a11.73,11.73,0,0,0,2.16,3c.15.19.17.2.27.16-1.66-4.29.27-7.71,3.71-8.25a.92.92,0,0,1,.09.39,29.58,29.58,0,0,0,7,14.78c.66.79,1.38,1.54,2.11,2.28.22.23.29.19.37,0,1.6-3.33,6.45-3.72,10.5-.85a11.41,11.41,0,0,1,4.74,6.73.71.71,0,0,0,.35.46,23.2,23.2,0,0,0,4.55,2.31c.1,0,.25,0,.3.17s-.12.14-.21.17a7.55,7.55,0,0,1-4.89-.1,20,20,0,0,0,2.16,1.49,24.8,24.8,0,0,0,2.3,1.21,11.31,11.31,0,0,1-2.09.05,16.51,16.51,0,0,1-3.19-.47.39.39,0,0,0-.44.1c-3.27,3.94-7.95,5.73-14,5.42a26.79,26.79,0,0,1-13.51-4.87,37.25,37.25,0,0,1-6.63-5.66,32.73,32.73,0,0,1-5.95-8.92l-.12-.25C331.82,147.85,331.86,147.91,331.91,148Z"/><path class="cls-3" d="M344.62,141.73c0,.07.09.17-.05.1a.48.48,0,0,1-.22-.26C344.44,141.61,344.5,141.75,344.62,141.73Z"/><path class="cls-3" d="M331.91,148c-.05,0-.09-.07-.14,0s-.07-.13,0-.12S331.89,147.9,331.91,148Z"/><path class="cls-3" d="M349.71,117.44a23.16,23.16,0,0,0,13,.46l.2-.05.06,0c-3.91-1.21-6.27-3.33-7.1-6.44a12.48,12.48,0,0,0,3.47.81.67.67,0,0,0,.42,0c-4.93-2.16-6.07-5.9-5.4-8a11.64,11.64,0,0,0,3.31,1.59c.22.09.23.09.3,0-3.46-3-3.37-6.91-.6-9.06a1,1,0,0,1,.26.31,29,29,0,0,0,13.05,9.62c1,.38,1.94.69,2.93,1,.29.09.34,0,.33-.18-.16-3.69,3.92-6.39,8.83-5.82a11.15,11.15,0,0,1,7.33,3.63.7.7,0,0,0,.52.23,22.55,22.55,0,0,0,5.08-.17c.11,0,.25-.08.34,0s0,.18-.1.25a7.58,7.58,0,0,1-4.34,2.28,18.92,18.92,0,0,0,2.59.26,22.59,22.59,0,0,0,2.59,0,11.94,11.94,0,0,1-1.81,1,16.22,16.22,0,0,1-3,1.13c-.21,0-.31.13-.34.3-1,5.05-4.31,8.89-9.74,11.53a26.72,26.72,0,0,1-14.16,2.25,36.45,36.45,0,0,1-8.49-1.77,32.14,32.14,0,0,1-9.41-5l-.22-.16C349.57,117.36,349.64,117.4,349.71,117.44Z"/><path class="cls-3" d="M358,105.79c.07,0,.16.1,0,.11a.47.47,0,0,1-.31-.12C357.75,105.77,357.86,105.86,358,105.79Z"/><path class="cls-3" d="M349.71,117.44s-.11,0-.14,0-.13-.08-.09-.1A.2.2,0,0,1,349.71,117.44Z"/><path class="cls-3" d="M390.07,73.41a23.16,23.16,0,0,0,13,.47l.19-.06s0,0,.07,0c-3.91-1.21-6.27-3.33-7.1-6.44a12.52,12.52,0,0,0,3.46.82c.14,0,.3.06.42,0-4.93-2.16-6.07-5.9-5.4-8A11.89,11.89,0,0,0,398,61.75c.22.09.24.1.31,0-3.47-3-3.37-6.91-.6-9a1,1,0,0,1,.26.3,28.9,28.9,0,0,0,13,9.62c1,.38,1.93.69,2.92,1,.3.09.35,0,.34-.18-.16-3.7,3.92-6.39,8.83-5.83a11.18,11.18,0,0,1,7.33,3.63.65.65,0,0,0,.51.23,22.65,22.65,0,0,0,5.09-.17c.11,0,.24-.08.34,0s0,.18-.1.25a7.6,7.6,0,0,1-4.34,2.27,17.34,17.34,0,0,0,2.59.26,22.65,22.65,0,0,0,2.59,0,13,13,0,0,1-1.82,1.06,15.94,15.94,0,0,1-3,1.12c-.2.06-.3.13-.34.31-1,5-4.31,8.89-9.74,11.52a26.67,26.67,0,0,1-14.15,2.26,36.88,36.88,0,0,1-8.49-1.78,31.91,31.91,0,0,1-9.41-5l-.23-.16C389.93,73.33,390,73.37,390.07,73.41Z"/><path class="cls-3" d="M398.31,61.76c.07.05.16.11,0,.11a.49.49,0,0,1-.32-.12C398.1,61.74,398.22,61.83,398.31,61.76Z"/><path class="cls-3" d="M390.07,73.41c-.05,0-.12,0-.15,0s-.12-.08-.08-.1A.21.21,0,0,1,390.07,73.41Z"/><path class="cls-3" d="M289.87,218.78a14.3,14.3,0,0,0,8,.29l.12,0,0,0c-2.41-.74-3.87-2-4.38-4a7.58,7.58,0,0,0,2.14.51c.08,0,.18,0,.26,0-3.05-1.34-3.75-3.65-3.34-4.94a7.19,7.19,0,0,0,2,1c.13.06.14.06.19,0-2.15-1.84-2.09-4.28-.38-5.6a.56.56,0,0,1,.16.19,18,18,0,0,0,8.07,5.94c.59.24,1.2.43,1.81.62.18,0,.21,0,.2-.11-.1-2.29,2.42-3.95,5.46-3.6a6.94,6.94,0,0,1,4.53,2.24.42.42,0,0,0,.32.14,14.25,14.25,0,0,0,3.14-.1c.07,0,.15-.05.21,0s0,.11-.06.16a4.73,4.73,0,0,1-2.69,1.4,10.44,10.44,0,0,0,1.61.16,14.38,14.38,0,0,0,1.6,0,8.54,8.54,0,0,1-1.12.65,10.42,10.42,0,0,1-1.87.69c-.13,0-.19.09-.21.19-.64,3.12-2.66,5.5-6,7.12a16.5,16.5,0,0,1-8.75,1.4,22.54,22.54,0,0,1-5.24-1.1,19.94,19.94,0,0,1-5.82-3.06.71.71,0,0,0-.14-.1C289.79,218.74,289.83,218.76,289.87,218.78Z"/><path class="cls-3" d="M295,211.59s.09.06,0,.06a.28.28,0,0,1-.19-.07C294.84,211.58,294.91,211.63,295,211.59Z"/><path class="cls-3" d="M289.87,218.78s-.07,0-.09,0-.07-.05,0-.06A.11.11,0,0,1,289.87,218.78Z"/><path class="cls-3" d="M295.82,180.94a14.39,14.39,0,0,0,8,.29l.12,0,0,0c-2.42-.74-3.88-2-4.39-4a7.71,7.71,0,0,0,2.14.5.46.46,0,0,0,.26,0c-3-1.34-3.75-3.65-3.33-4.94a7.26,7.26,0,0,0,2,1c.14.06.15.06.19,0-2.14-1.84-2.08-4.27-.37-5.6a.9.9,0,0,1,.16.19,17.85,17.85,0,0,0,8.06,5.95c.59.23,1.2.42,1.81.61.18.06.21,0,.21-.11-.1-2.28,2.42-3.95,5.46-3.6a6.89,6.89,0,0,1,4.52,2.24.44.44,0,0,0,.32.15,14.32,14.32,0,0,0,3.15-.11c.06,0,.15-.05.2,0s0,.11-.06.16a4.75,4.75,0,0,1-2.68,1.41,13.53,13.53,0,0,0,1.6.16c.52,0,1,0,1.6,0a7.54,7.54,0,0,1-1.12.65,9.9,9.9,0,0,1-1.87.7c-.12,0-.18.08-.2.19-.64,3.12-2.67,5.49-6,7.12a16.6,16.6,0,0,1-8.75,1.39,23,23,0,0,1-5.25-1.09,19.79,19.79,0,0,1-5.81-3.07l-.14-.1C295.73,180.89,295.78,180.91,295.82,180.94Z"/><path class="cls-3" d="M300.91,173.74s.1.06,0,.07a.29.29,0,0,1-.19-.08C300.78,173.73,300.85,173.78,300.91,173.74Z"/><path class="cls-3" d="M295.82,180.94s-.07,0-.09,0-.08,0-.05-.06A.13.13,0,0,1,295.82,180.94Z"/><path class="cls-3" d="M302,194.76a14.29,14.29,0,0,0,8,.29l.12,0,0,0c-2.42-.75-3.88-2.06-4.39-4a7.55,7.55,0,0,0,2.14.5.46.46,0,0,0,.26,0c-3.05-1.33-3.75-3.65-3.34-4.93a7.75,7.75,0,0,0,2.05,1c.14.05.15.05.19,0-2.14-1.83-2.09-4.27-.37-5.59a.58.58,0,0,1,.16.19A17.9,17.9,0,0,0,315,188.1c.59.23,1.2.43,1.81.61.18.06.21,0,.21-.11-.1-2.28,2.42-3.94,5.45-3.59a6.84,6.84,0,0,1,4.53,2.23.39.39,0,0,0,.32.15,14.21,14.21,0,0,0,3.14-.1c.07,0,.16-.06.21,0s0,.11-.06.15a4.69,4.69,0,0,1-2.68,1.41,10.32,10.32,0,0,0,1.6.16,14.46,14.46,0,0,0,1.6,0,7.62,7.62,0,0,1-1.12.66,9.88,9.88,0,0,1-1.87.69c-.12,0-.19.08-.21.19-.63,3.12-2.66,5.49-6,7.12a16.37,16.37,0,0,1-8.74,1.39,22.5,22.5,0,0,1-5.25-1.09,19.73,19.73,0,0,1-5.82-3.07l-.13-.1C301.94,194.71,302,194.74,302,194.76Z"/><path class="cls-3" d="M307.12,187.56s.1.07,0,.07a.28.28,0,0,1-.19-.07C307,187.55,307.06,187.61,307.12,187.56Z"/><path class="cls-3" d="M302,194.76s-.07,0-.09,0-.08,0-.05-.06A.13.13,0,0,1,302,194.76Z"/><path class="cls-3" d="M362.4,175.12a18.92,18.92,0,0,0-5.35-10.35l-.13-.13-.07,0c.66,3.59-.17,6.36-2.57,8.38a10,10,0,0,0-.81-3.07c-.05-.11-.08-.25-.19-.32.27,4.8-2.55,7.34-4.7,7.73a9.53,9.53,0,0,0-.06-3.28c0-.22,0-.23-.13-.25-1.1,4-4.64,5.68-7.78,4.45a.92.92,0,0,1,.16-.33,24.37,24.37,0,0,0,2.75-14.44c-.09-.91-.24-1.82-.41-2.72-.06-.27-.13-.28-.31-.18-3.21,1.75-7.42-.26-9.1-4.35a9.1,9.1,0,0,1,0-7.32.57.57,0,0,0,0-.51,18.86,18.86,0,0,0-2.41-3.9c-.06-.08-.18-.16-.15-.27s.18,0,.27,0a7.18,7.18,0,0,1,3.95,2.39,14.5,14.5,0,0,0-.92-2.14,19.44,19.44,0,0,0-1.19-2,12.12,12.12,0,0,1,1.75,1,14.65,14.65,0,0,1,2.34,1.87.39.39,0,0,0,.42.13c4.94-1.42,9.81-.54,14.56,2.55A22.66,22.66,0,0,1,360.56,158a29.49,29.49,0,0,1,2.2,7.42,26.08,26.08,0,0,1-.23,9.54c0,.08,0,.17,0,.25S362.4,175.19,362.4,175.12Z"/><path class="cls-3" d="M348.39,173.8c0-.07,0-.17.09-.05a.35.35,0,0,1,0,.3C348.47,174,348.49,173.84,348.39,173.8Z"/><path class="cls-3" d="M362.4,175.12s0,.1.08.11,0,.13-.05.1S362.37,175.2,362.4,175.12Z"/><path class="cls-3" d="M375,163a18.78,18.78,0,0,0-5.34-10.35l-.14-.13-.06,0c.66,3.58-.17,6.36-2.57,8.38a9.94,9.94,0,0,0-.82-3.07c0-.11-.07-.25-.19-.33.28,4.81-2.55,7.35-4.7,7.74a9.58,9.58,0,0,0-.05-3.29c0-.21,0-.22-.13-.24-1.11,4-4.65,5.68-7.78,4.45a1,1,0,0,1,.15-.33,24.3,24.3,0,0,0,2.76-14.44c-.09-.91-.25-1.82-.42-2.72-.05-.27-.13-.28-.31-.18-3.21,1.75-7.41-.26-9.09-4.35a9.06,9.06,0,0,1,0-7.32.57.57,0,0,0,0-.51,19.3,19.3,0,0,0-2.41-3.9c-.07-.08-.19-.16-.15-.27s.17,0,.26,0a7.18,7.18,0,0,1,4,2.39,15.65,15.65,0,0,0-.92-2.14,18.54,18.54,0,0,0-1.19-2,12,12,0,0,1,1.74,1,14.22,14.22,0,0,1,2.34,1.87.42.42,0,0,0,.43.13c4.94-1.42,9.81-.54,14.56,2.54a22.68,22.68,0,0,1,8.29,10.08,29.06,29.06,0,0,1,2.19,7.42,26.08,26.08,0,0,1-.22,9.54c0,.08,0,.16,0,.25S375,163,375,163Z"/><path class="cls-3" d="M361,161.64c0-.07,0-.17.09,0a.36.36,0,0,1,0,.29C361,161.81,361.05,161.68,361,161.64Z"/><path class="cls-3" d="M375,163s0,.1.09.11,0,.13-.05.1S374.92,163,375,163Z"/><path class="cls-3" d="M322.8,167.16a9.32,9.32,0,0,0,6.76,2.49h.13l.05,0a5.07,5.07,0,0,1-1.42-5.67,4.58,4.58,0,0,0,1.55,1.14c.07,0,.14.09.23.07a5.21,5.21,0,0,1,.07-6.48,4.7,4.7,0,0,0,1.18,1.66c.08.1.09.11.16.06a5.54,5.54,0,0,1,3-6.42.71.71,0,0,1,0,.25,13.64,13.64,0,0,0,3.42,8.89,16.56,16.56,0,0,0,1.19,1.18c.13.11.18.07.25-.07a5.27,5.27,0,0,1,6.87-2.6,4.59,4.59,0,0,1,2.57,3.75.28.28,0,0,0,.19.25,9.43,9.43,0,0,0,2.78.73c.06,0,.16,0,.18,0s-.09.12-.15.16a5.19,5.19,0,0,1-3.16.87,6.27,6.27,0,0,0,1.29.61,9.19,9.19,0,0,0,1.4.4,9.29,9.29,0,0,1-1.36.44,10,10,0,0,1-2,.28.35.35,0,0,0-.29.16,16.05,16.05,0,0,1-9.46,6.43,12.65,12.65,0,0,1-8.4-.78,13.43,13.43,0,0,1-3.88-2.65,13,13,0,0,1-3.19-5l-.06-.16C322.76,167.09,322.78,167.12,322.8,167.16Z"/><path class="cls-3" d="M331.51,160.4s.05.1,0,.08a.19.19,0,0,1-.12-.14C331.41,160.35,331.44,160.43,331.51,160.4Z"/><path class="cls-3" d="M322.8,167.16s-.05,0-.08,0,0-.07,0-.08S322.8,167.11,322.8,167.16Z"/><path class="cls-3" d="M307.87,193.88a9.29,9.29,0,0,0,6.76,2.49h.12l.05,0a5.05,5.05,0,0,1-1.41-5.67,4.39,4.39,0,0,0,1.55,1.14c.07,0,.13.09.22.07a5.22,5.22,0,0,1,.07-6.48,4.7,4.7,0,0,0,1.18,1.66c.09.1.1.11.16.06a5.55,5.55,0,0,1,3-6.42.53.53,0,0,1,0,.25,13.69,13.69,0,0,0,3.42,8.89,16.56,16.56,0,0,0,1.19,1.18c.13.11.18.07.25-.07a5.27,5.27,0,0,1,6.87-2.6,4.57,4.57,0,0,1,2.57,3.75.28.28,0,0,0,.19.25,9.84,9.84,0,0,0,2.78.73c.07,0,.16,0,.18,0s-.08.12-.14.16a5.23,5.23,0,0,1-3.17.87,7.14,7.14,0,0,0,1.29.61,9.19,9.19,0,0,0,1.4.4,8.58,8.58,0,0,1-1.36.44,10,10,0,0,1-2,.28.34.34,0,0,0-.29.16,16.05,16.05,0,0,1-9.46,6.43,12.66,12.66,0,0,1-8.4-.78,13.57,13.57,0,0,1-3.88-2.65,13.06,13.06,0,0,1-3.19-5l-.06-.15C307.82,193.81,307.84,193.84,307.87,193.88Z"/><path class="cls-3" d="M316.57,187.12s.05.1,0,.07a.17.17,0,0,1-.13-.13C316.47,187.07,316.5,187.15,316.57,187.12Z"/><path class="cls-3" d="M307.87,193.88s-.06,0-.09,0,0-.07,0-.08S307.86,193.83,307.87,193.88Z"/><path class="cls-3" d="M341.38,140.57a17.73,17.73,0,0,0,9.82.32l.14,0,.05,0c-3-.88-4.75-2.45-5.38-4.77a9.63,9.63,0,0,0,2.62.6.58.58,0,0,0,.32,0c-3.73-1.59-4.6-4.38-4.1-5.93a9.27,9.27,0,0,0,2.5,1.18c.17.06.18.06.24,0-2.63-2.2-2.57-5.14-.48-6.74a.72.72,0,0,1,.2.23,21.83,21.83,0,0,0,9.89,7.13c.72.28,1.46.51,2.21.73.23.07.26,0,.25-.13-.13-2.75,2.95-4.77,6.67-4.36a8.48,8.48,0,0,1,5.55,2.68.55.55,0,0,0,.39.18,18.21,18.21,0,0,0,3.85-.14c.08,0,.18-.07.25,0s0,.13-.07.19a5.81,5.81,0,0,1-3.28,1.7,13.94,13.94,0,0,0,2,.19c.64,0,1.27,0,2,0a9.49,9.49,0,0,1-1.37.79,12.62,12.62,0,0,1-2.28.85c-.16,0-.23.09-.26.22-.77,3.76-3.24,6.63-7.34,8.6a20.45,20.45,0,0,1-10.7,1.72,28.25,28.25,0,0,1-6.42-1.3,24.43,24.43,0,0,1-7.13-3.67l-.17-.12C341.28,140.52,341.33,140.54,341.38,140.57Z"/><path class="cls-3" d="M347.59,131.88c.05,0,.12.08,0,.08a.37.37,0,0,1-.24-.08C347.43,131.87,347.52,131.93,347.59,131.88Z"/><path class="cls-3" d="M341.38,140.57s-.09,0-.11,0-.09-.06-.06-.07A.14.14,0,0,1,341.38,140.57Z"/><path class="cls-3" d="M338.72,133.58a17.82,17.82,0,0,0,9.82.32l.15,0,0,0c-3-.89-4.74-2.46-5.38-4.77a10,10,0,0,0,2.62.6c.11,0,.23,0,.32,0-3.73-1.59,1.83-1.77,2.33-3.32.76.5-.54-4,.38-3.74a27.25,27.25,0,0,0,3.44-.65c-2.63-2.21-3.22,3.69-1.13,2.09.1.06.2-4.57.25-4.49,2.35,3.11-1.26,4.34,3,6,.72.28,1.47.51,2.21.73.23.07.26,0,.26-.14-.13-2.75,2.94-4.76,6.66-4.35a8.48,8.48,0,0,1,5.55,2.68.51.51,0,0,0,.39.17,18.22,18.22,0,0,0,3.85-.13c.08,0,.18-.07.25,0s0,.13-.07.18a5.76,5.76,0,0,1-3.28,1.71,13.94,13.94,0,0,0,2,.19c.64,0,1.27,0,2,0a9.49,9.49,0,0,1-1.37.79,12.6,12.6,0,0,1-2.28.84c-.15,0-.23.1-.26.23-.76,3.76-3.24,6.63-7.34,8.6a20.45,20.45,0,0,1-10.7,1.72,28.92,28.92,0,0,1-6.42-1.3,24.55,24.55,0,0,1-7.13-3.67l-.17-.12C338.62,133.52,338.67,133.55,338.72,133.58Z"/><path class="cls-3" d="M344.93,124.89c.05,0,.12.08,0,.08a.35.35,0,0,1-.23-.09C344.77,124.88,344.86,124.94,344.93,124.89Z"/><path class="cls-3" d="M338.72,133.58s-.08,0-.11,0-.09-.06-.06-.08A.15.15,0,0,1,338.72,133.58Z"/><path class="cls-3" d="M380.37,85.06a18.88,18.88,0,0,0,5.21,10.43l.13.12s0,0,.07,0c-.62-3.59.25-6.36,2.68-8.34a10,10,0,0,0,.77,3.08c0,.11.07.26.19.33-.21-4.81,2.65-7.31,4.8-7.67a9.51,9.51,0,0,0,0,3.28c0,.22,0,.23.12.25,1.16-4,4.72-5.62,7.84-4.35a1,1,0,0,1-.16.34,24.39,24.39,0,0,0-3,14.4c.07.91.22,1.82.38,2.72,0,.28.12.29.3.19,3.24-1.71,7.42.36,9,4.47a9.08,9.08,0,0,1-.07,7.32.57.57,0,0,0,0,.51,19.23,19.23,0,0,0,2.36,3.94c.06.08.18.15.15.26s-.18,0-.27,0a7.13,7.13,0,0,1-3.92-2.45,14.3,14.3,0,0,0,.89,2.16,19.23,19.23,0,0,0,1.16,2,12,12,0,0,1-1.73-1,14.73,14.73,0,0,1-2.32-1.9.38.38,0,0,0-.42-.13c-5,1.34-9.81.4-14.52-2.75A22.64,22.64,0,0,1,382,102.18a29.13,29.13,0,0,1-2.1-7.44,26.25,26.25,0,0,1,.36-9.54c0-.08,0-.17.05-.25S380.38,85,380.37,85.06Z"/><path class="cls-3" d="M394.36,86.57c0,.07,0,.17-.09.05a.35.35,0,0,1,0-.3C394.29,86.4,394.26,86.53,394.36,86.57Z"/><path class="cls-3" d="M380.37,85.06s0-.1-.08-.11,0-.13,0-.1S380.41,85,380.37,85.06Z"/><path class="cls-3" d="M370.55,94.32a18.93,18.93,0,0,0,5.2,10.43l.13.12.07,0c-.61-3.6.26-6.37,2.68-8.35a10,10,0,0,0,.77,3.08c.05.11.08.26.19.33-.21-4.81,2.65-7.31,4.81-7.67a9.51,9.51,0,0,0,0,3.28c0,.22,0,.23.12.25,1.16-4,4.73-5.61,7.84-4.35a.89.89,0,0,1-.16.34,24.39,24.39,0,0,0-2.95,14.4c.08.91.22,1.82.38,2.72.05.28.12.29.31.19,3.23-1.71,7.41.36,9,4.47a9.08,9.08,0,0,1-.07,7.32.54.54,0,0,0,0,.51,19.19,19.19,0,0,0,2.35,3.94c.06.08.18.15.15.26s-.18.05-.27,0a7.13,7.13,0,0,1-3.92-2.45,15.42,15.42,0,0,0,.89,2.16,19.23,19.23,0,0,0,1.16,2,12,12,0,0,1-1.73-1,14.22,14.22,0,0,1-2.31-1.9.39.39,0,0,0-.42-.13c-5,1.34-9.82.4-14.53-2.75a22.64,22.64,0,0,1-8.15-10.19,29.13,29.13,0,0,1-2.1-7.44,26.25,26.25,0,0,1,.36-9.54,2.21,2.21,0,0,0,0-.25C370.55,94.18,370.55,94.25,370.55,94.32Z"/><path class="cls-3" d="M384.53,95.83c0,.07,0,.17-.09,0a.38.38,0,0,1,0-.3C384.46,95.66,384.43,95.79,384.53,95.83Z"/><path class="cls-3" d="M370.55,94.32s0-.1-.09-.11,0-.13.05-.1S370.58,94.24,370.55,94.32Z"/><path class="cls-3" d="M391.82,89.61a17.73,17.73,0,0,0,8.8,4.36l.15,0h.06c-2.33-2-3.31-4.2-2.92-6.57A9.63,9.63,0,0,0,400.05,89a.64.64,0,0,0,.29.13c-2.74-3-2.38-5.9-1.27-7.1a8.88,8.88,0,0,0,1.79,2.1c.12.13.13.14.21.11-1.48-3.1-.21-5.74,2.36-6.33a.74.74,0,0,1,.08.28,22,22,0,0,0,6.05,10.59c.54.56,1.12,1.08,1.71,1.59.17.15.23.12.28,0,1-2.56,4.66-3.11,7.88-1.2a8.52,8.52,0,0,1,3.93,4.74.51.51,0,0,0,.29.32,17.19,17.19,0,0,0,3.55,1.47c.08,0,.2,0,.24.11s-.08.11-.15.14a5.76,5.76,0,0,1-3.69.19,12.6,12.6,0,0,0,1.71,1,16.52,16.52,0,0,0,1.8.78,8.7,8.7,0,0,1-1.58.15,12.64,12.64,0,0,1-2.43-.17c-.15,0-.25,0-.32.1-2.26,3.1-5.7,4.69-10.25,4.78a20.48,20.48,0,0,1-10.45-2.88,28.08,28.08,0,0,1-5.3-3.84,24.66,24.66,0,0,1-5-6.3l-.1-.18C391.75,89.52,391.78,89.56,391.82,89.61Z"/><path class="cls-3" d="M401.07,84.28s.07.12,0,.07a.32.32,0,0,1-.18-.18C400.93,84.2,401,84.29,401.07,84.28Z"/><path class="cls-3" d="M391.82,89.61s-.07,0-.11,0-.06-.09,0-.09A.16.16,0,0,1,391.82,89.61Z"/><path class="cls-3" d="M404.93,81.55a11.93,11.93,0,0,0,5.89,2.92l.1,0h0c-1.55-1.36-2.21-2.82-1.95-4.4a6.61,6.61,0,0,0,1.43,1.09c.06,0,.12.09.2.09-1.84-2-1.59-4-.85-4.76A5.91,5.91,0,0,0,411,77.91c.09.09.1.1.14.07-1-2.07-.13-3.84,1.59-4.24a.49.49,0,0,1,.05.2A14.71,14.71,0,0,0,416.81,81c.36.37.75.71,1.14,1.06.12.1.16.08.19,0,.69-1.72,3.12-2.09,5.27-.81a5.7,5.7,0,0,1,2.64,3.18.33.33,0,0,0,.19.21,11.83,11.83,0,0,0,2.38,1c.05,0,.13,0,.16.08s-.06.07-.1.09a3.92,3.92,0,0,1-2.47.13,11.44,11.44,0,0,0,1.14.66c.38.19.77.35,1.21.52a6.54,6.54,0,0,1-1.06.1,9,9,0,0,1-1.62-.12.19.19,0,0,0-.22.07c-1.51,2.07-3.82,3.13-6.86,3.2a13.65,13.65,0,0,1-7-1.93,19.06,19.06,0,0,1-3.56-2.57,16.58,16.58,0,0,1-3.32-4.22l-.07-.12S404.91,81.52,404.93,81.55Z"/><path class="cls-3" d="M411.12,78s.06.08,0,0a.25.25,0,0,1-.13-.12S411.07,78,411.12,78Z"/><path class="cls-3" d="M404.93,81.55s0,0-.07,0,0-.06,0-.06A.1.1,0,0,1,404.93,81.55Z"/><path class="cls-3" d="M420.85,61.31a12,12,0,0,0,.67,6.54.36.36,0,0,1,0,.09l0,0c.32-2,1.2-3.37,2.68-4a6.56,6.56,0,0,0-.16,1.8c0,.07,0,.15,0,.21.73-2.62,2.5-3.45,3.57-3.26a6.09,6.09,0,0,0-.55,1.77c0,.12,0,.13,0,.15,1.23-1.94,3.18-2.16,4.43-.92a.49.49,0,0,1-.13.15,14.57,14.57,0,0,0-3.84,7.21c-.12.5-.21,1-.29,1.53,0,.15,0,.17.11.15,1.82-.33,3.43,1.53,3.49,4a5.66,5.66,0,0,1-1.28,3.92.36.36,0,0,0-.08.27,11.74,11.74,0,0,0,.44,2.54s.06.12,0,.17-.09,0-.13,0a3.92,3.92,0,0,1-1.42-2,9.26,9.26,0,0,0,.05,1.31,12.86,12.86,0,0,0,.2,1.3,7.27,7.27,0,0,1-.65-.84,7.86,7.86,0,0,1-.76-1.44c0-.09-.09-.14-.18-.14a8.2,8.2,0,0,1-6.36-4.1,13.65,13.65,0,0,1-2.1-6.94,18.92,18.92,0,0,1,.28-4.38,16.3,16.3,0,0,1,1.8-5.06l.06-.12C420.88,61.24,420.87,61.27,420.85,61.31Z"/><path class="cls-3" d="M427.17,64.64s0,.09-.05,0a.2.2,0,0,1,0-.16C427.17,64.54,427.13,64.6,427.17,64.64Z"/><path class="cls-3" d="M420.85,61.31s0-.06,0-.07,0-.07,0-.05A.09.09,0,0,1,420.85,61.31Z"/><path class="cls-3" d="M384.83,144.79a11,11,0,0,0-5.34-2.85h-.09s0,0,0,0A4.37,4.37,0,0,1,381,146a6,6,0,0,0-1.29-1c-.06,0-.11-.08-.18-.08,1.63,1.9,1.35,3.67.65,4.4a5.64,5.64,0,0,0-1.06-1.34c-.08-.08-.09-.08-.13-.06.85,1.93,0,3.54-1.58,3.85a.58.58,0,0,1,0-.18,13.55,13.55,0,0,0-3.53-6.64c-.32-.35-.67-.68-1-1-.11-.1-.14-.09-.18,0-.67,1.56-2.93,1.83-4.87.59a5.24,5.24,0,0,1-2.34-3,.31.31,0,0,0-.16-.21,11.92,11.92,0,0,0-2.17-1c-.05,0-.12,0-.14-.07s.05-.07.09-.08a3.58,3.58,0,0,1,2.28-.05,9.05,9.05,0,0,0-1-.64,10.16,10.16,0,0,0-1.1-.51,5.52,5.52,0,0,1,1-.07,8.69,8.69,0,0,1,1.49.16.17.17,0,0,0,.2-.06,7.51,7.51,0,0,1,6.4-2.75,12.65,12.65,0,0,1,6.39,2,17.34,17.34,0,0,1,3.19,2.47,14.76,14.76,0,0,1,2.94,4,.75.75,0,0,0,.07.12S384.85,144.82,384.83,144.79Z"/><path class="cls-3" d="M379,147.91s0-.08,0,0a.23.23,0,0,1,.11.11C379.11,148,379.08,147.9,379,147.91Z"/><path class="cls-3" d="M384.83,144.79s0,0,.07,0,0,.05,0,.05S384.84,144.83,384.83,144.79Z"/><path class="cls-3" d="M385,141a10.92,10.92,0,0,0-4-4.59l-.08,0h0a4.35,4.35,0,0,1,.07,4.44,5.8,5.8,0,0,0-.82-1.44s-.07-.12-.13-.15c.83,2.37-.08,3.92-1,4.34a5.41,5.41,0,0,0-.51-1.63c0-.1,0-.11-.09-.11.09,2.12-1.27,3.31-2.87,3a.58.58,0,0,1,0-.19,13.39,13.39,0,0,0-.88-7.46c-.17-.44-.38-.88-.59-1.31-.06-.13-.1-.13-.16-.06-1.2,1.21-3.4.65-4.76-1.21a5.2,5.2,0,0,1-1.09-3.64.3.3,0,0,0-.09-.25,10.63,10.63,0,0,0-1.66-1.69s-.11-.06-.11-.12.07,0,.12,0a3.53,3.53,0,0,1,2.14.78,8.76,8.76,0,0,0-.73-1c-.26-.3-.53-.58-.84-.88a6,6,0,0,1,.93.3,7.68,7.68,0,0,1,1.34.68.18.18,0,0,0,.21,0,7.5,7.5,0,0,1,7-.25,12.69,12.69,0,0,1,5.24,4.15,17.09,17.09,0,0,1,2.08,3.46,14.91,14.91,0,0,1,1.31,4.77s0,.08,0,.13S385.05,141,385,141Z"/><path class="cls-3" d="M378.51,141.8s0-.08,0,0a.22.22,0,0,1,.06.14S378.56,141.81,378.51,141.8Z"/><path class="cls-3" d="M385,141s0,.05,0,.05,0,.06,0,0S385,141.05,385,141Z"/><path class="cls-3" d="M391.53,125a17.76,17.76,0,0,0-8.41-5.07l-.15,0h-.06c2.15,2.22,2.94,4.46,2.37,6.8a9.7,9.7,0,0,0-2-1.81c-.09-.06-.17-.15-.28-.15,2.48,3.22,1.88,6.07.68,7.18a8.94,8.94,0,0,0-1.61-2.25c-.11-.14-.13-.14-.2-.12,1.22,3.21-.27,5.74-2.88,6.12a.84.84,0,0,1-.06-.3,21.85,21.85,0,0,0-5.15-11.05c-.49-.6-1-1.16-1.57-1.72-.16-.17-.22-.14-.29,0-1.23,2.47-4.9,2.72-7.94.55a8.46,8.46,0,0,1-3.53-5,.52.52,0,0,0-.26-.34,17.6,17.6,0,0,0-3.42-1.76c-.08,0-.2,0-.23-.12s.09-.11.16-.13a5.8,5.8,0,0,1,3.69.11,13.91,13.91,0,0,0-1.62-1.12,16.5,16.5,0,0,0-1.73-.92,9.43,9.43,0,0,1,1.59,0,12.05,12.05,0,0,1,2.4.37.3.3,0,0,0,.34-.07c2.5-2.91,6.06-4.2,10.6-3.92a20.39,20.39,0,0,1,10.17,3.73,27.7,27.7,0,0,1,5,4.27,24.2,24.2,0,0,1,4.43,6.68l.09.19C391.59,125.09,391.56,125,391.53,125Z"/><path class="cls-3" d="M381.87,129.54s-.07-.12,0-.07a.39.39,0,0,1,.17.19C382,129.63,382,129.53,381.87,129.54Z"/><path class="cls-3" d="M391.53,125s.06.06.1,0,.06.09,0,.09S391.54,125.06,391.53,125Z"/><path class="cls-3" d="M377.82,147.59a17.64,17.64,0,0,0-9.81-.45l-.14,0s0,0-.05,0c2.94.93,4.71,2.52,5.32,4.85a9.73,9.73,0,0,0-2.62-.64.58.58,0,0,0-.32,0c3.72,1.65,4.55,4.44,4,6a9.22,9.22,0,0,0-2.48-1.21c-.17-.07-.19-.07-.24,0,2.6,2.24,2.5,5.18.39,6.75a.85.85,0,0,1-.2-.23,21.87,21.87,0,0,0-9.79-7.27c-.72-.29-1.46-.53-2.2-.76-.23-.07-.26,0-.26.13.09,2.75-3,4.73-6.72,4.26a8.45,8.45,0,0,1-5.51-2.75.52.52,0,0,0-.39-.18,17.62,17.62,0,0,0-3.85.08c-.08,0-.19.07-.26,0s0-.13.08-.18a5.81,5.81,0,0,1,3.3-1.67,15.79,15.79,0,0,0-2-.21c-.63,0-1.26,0-2,0a9.53,9.53,0,0,1,1.39-.77,12.38,12.38,0,0,1,2.29-.81c.15,0,.23-.1.26-.23.82-3.75,3.33-6.58,7.45-8.5a20.5,20.5,0,0,1,10.73-1.56,28.12,28.12,0,0,1,6.4,1.38,24.48,24.48,0,0,1,7.08,3.77l.17.12C377.93,147.64,377.88,147.62,377.82,147.59Z"/><path class="cls-3" d="M371.5,156.19c-.05,0-.12-.08,0-.08a.38.38,0,0,1,.24.09C371.66,156.21,371.57,156.14,371.5,156.19Z"/><path class="cls-3" d="M377.82,147.59s.09,0,.12,0,.09.06.06.07A.16.16,0,0,1,377.82,147.59Z"/><path class="cls-3" d="M347,180a17.73,17.73,0,0,0-9.81-.45l-.14,0s0,0-.05,0c3,.93,4.71,2.52,5.32,4.85a9.73,9.73,0,0,0-2.62-.64.69.69,0,0,0-.32,0c3.72,1.65,4.55,4.45,4,6a9.22,9.22,0,0,0-2.48-1.21c-.17-.07-.18-.07-.24,0,2.6,2.25,2.5,5.18.39,6.75a.72.72,0,0,1-.2-.23A21.78,21.78,0,0,0,331,187.9c-.72-.29-1.46-.54-2.2-.77-.23-.07-.26,0-.26.13.09,2.76-3,4.73-6.72,4.27a8.46,8.46,0,0,1-5.51-2.76.55.55,0,0,0-.39-.18,18.25,18.25,0,0,0-3.85.09c-.08,0-.19.06-.26,0s0-.13.08-.18a5.8,5.8,0,0,1,3.3-1.66,14.16,14.16,0,0,0-2-.22,18.27,18.27,0,0,0-1.95,0,8.24,8.24,0,0,1,1.38-.78A12.38,12.38,0,0,1,315,185c.15,0,.23-.1.26-.22.82-3.76,3.33-6.59,7.45-8.5a20.4,20.4,0,0,1,10.73-1.57,28.12,28.12,0,0,1,6.4,1.38,24.48,24.48,0,0,1,7.08,3.77l.17.12C347.07,180.1,347,180.07,347,180Z"/><path class="cls-3" d="M340.64,188.64c-.05,0-.12-.08,0-.07a.37.37,0,0,1,.24.08C340.8,188.66,340.71,188.59,340.64,188.64Z"/><path class="cls-3" d="M347,180s.09,0,.12,0,.09.06.06.08S347,180.09,347,180Z"/><path class="cls-3" d="M423.86,72.62a11,11,0,0,0-6.06-.28l-.09,0,0,0a4.37,4.37,0,0,1,3.29,3,6,6,0,0,0-1.62-.39.31.31,0,0,0-.19,0c2.29,1,2.8,2.75,2.48,3.7a5.51,5.51,0,0,0-1.54-.75c-.1,0-.11,0-.14,0,1.6,1.38,1.54,3.19.24,4.17a.42.42,0,0,1-.12-.15A13.62,13.62,0,0,0,414,77.47c-.44-.17-.9-.32-1.36-.47-.13,0-.16,0-.15.08.05,1.71-1.87,2.92-4.16,2.64a5.28,5.28,0,0,1-3.41-1.7.26.26,0,0,0-.23-.11,10.47,10.47,0,0,0-2.38,0c-.05,0-.12,0-.16,0s0-.09.05-.12a3.58,3.58,0,0,1,2-1,8.92,8.92,0,0,0-1.21-.13c-.4,0-.79,0-1.21,0a6.56,6.56,0,0,1,.85-.48,8.48,8.48,0,0,1,1.42-.5.18.18,0,0,0,.16-.14,7.49,7.49,0,0,1,4.6-5.25,12.64,12.64,0,0,1,6.63-1,17.4,17.4,0,0,1,4,.86,15.12,15.12,0,0,1,4.37,2.33l.1.07S423.9,72.64,423.86,72.62Z"/><path class="cls-3" d="M420,77.94s-.08,0,0,0a.27.27,0,0,1,.14,0S420,77.91,420,77.94Z"/><path class="cls-3" d="M423.86,72.62s.06,0,.07,0,.06,0,0,0A.12.12,0,0,1,423.86,72.62Z"/><path class="cls-3" d="M419.07,100.75a10.86,10.86,0,0,0-6.06-.28l-.09,0,0,0a4.39,4.39,0,0,1,3.29,3,5.71,5.71,0,0,0-1.62-.39.34.34,0,0,0-.2,0c2.3,1,2.81,2.74,2.49,3.7a5.51,5.51,0,0,0-1.54-.75c-.1,0-.11,0-.14,0,1.6,1.39,1.54,3.2.23,4.17a.53.53,0,0,1-.12-.14,13.46,13.46,0,0,0-6-4.49c-.44-.18-.9-.33-1.36-.47-.14,0-.16,0-.16.08.06,1.7-1.86,2.92-4.15,2.64a5.26,5.26,0,0,1-3.41-1.71.34.34,0,0,0-.24-.11,11.79,11.79,0,0,0-2.38,0s-.11,0-.15,0,0-.08,0-.11a3.64,3.64,0,0,1,2.05-1,9.23,9.23,0,0,0-1.22-.13,9.83,9.83,0,0,0-1.21,0,6.18,6.18,0,0,1,.86-.48,7.13,7.13,0,0,1,1.41-.5c.1,0,.15-.06.16-.14a7.53,7.53,0,0,1,4.61-5.25,12.63,12.63,0,0,1,6.63-1,17.3,17.3,0,0,1,4,.85,15.05,15.05,0,0,1,4.38,2.33l.1.08S419.11,100.77,419.07,100.75Z"/><path class="cls-3" d="M415.17,106.06s-.08,0,0,0a.22.22,0,0,1,.15.06C415.26,106.07,415.21,106,415.17,106.06Z"/><path class="cls-3" d="M419.07,100.75s.06,0,.07,0,.06,0,0,0A.09.09,0,0,1,419.07,100.75Z"/><path class="cls-3" d="M414.49,90.41a10.89,10.89,0,0,0-6.07-.28l-.09,0,0,0a4.38,4.38,0,0,1,3.29,3,5.63,5.63,0,0,0-1.62-.39.31.31,0,0,0-.19,0c2.29,1,2.81,2.74,2.48,3.7a5.51,5.51,0,0,0-1.54-.75c-.1,0-.11,0-.14,0,1.61,1.39,1.54,3.2.24,4.17a.39.39,0,0,1-.12-.14,13.64,13.64,0,0,0-6.05-4.49c-.45-.18-.9-.33-1.36-.47-.14,0-.16,0-.16.08.06,1.7-1.86,2.92-4.16,2.64a5.24,5.24,0,0,1-3.4-1.71.36.36,0,0,0-.24-.11,11.76,11.76,0,0,0-2.38,0c-.05,0-.12,0-.16,0s0-.08,0-.11a3.58,3.58,0,0,1,2-1,8.92,8.92,0,0,0-1.21-.13,9.82,9.82,0,0,0-1.21,0,5.57,5.57,0,0,1,.85-.48,7,7,0,0,1,1.42-.5c.09,0,.14-.06.16-.14a7.51,7.51,0,0,1,4.61-5.25,12.59,12.59,0,0,1,6.62-1,17.38,17.38,0,0,1,4,.85,15.12,15.12,0,0,1,4.37,2.33l.11.08S414.52,90.43,414.49,90.41Z"/><path class="cls-3" d="M410.58,95.72s-.07,0,0,0a.17.17,0,0,1,.14,0S410.62,95.69,410.58,95.72Z"/><path class="cls-3" d="M414.49,90.41s.05,0,.07,0,.05,0,0,0S414.52,90.44,414.49,90.41Z"/><path class="cls-3" d="M125.27,106.61a13.65,13.65,0,0,0,5.08-8.48l0-.16a.56.56,0,0,1,0-.07,6.88,6.88,0,0,1-7.74,1A6.92,6.92,0,0,0,124.54,97c.06-.08.16-.16.15-.29a6.61,6.61,0,0,1-8.36-1.07,6.87,6.87,0,0,0,2.47-1.29c.16-.1.16-.11.12-.21a6.55,6.55,0,0,1-7.48-4.94.78.78,0,0,1,.34,0,19.23,19.23,0,0,0,12.45-3.12,20.91,20.91,0,0,0,1.86-1.39c.18-.14.14-.21,0-.33A6.64,6.64,0,0,1,124.6,75a6.71,6.71,0,0,1,5.57-2.8.41.41,0,0,0,.37-.21,14.22,14.22,0,0,0,1.71-3.53c0-.09,0-.22.13-.23s.13.13.16.21a6.72,6.72,0,0,1,.25,4.28,9.71,9.71,0,0,0,1.15-1.6,12.73,12.73,0,0,0,.9-1.77,10.19,10.19,0,0,1,.19,1.85,12.83,12.83,0,0,1-.19,2.7.42.42,0,0,0,.12.41,19,19,0,0,1,5.7,13.37,17.81,17.81,0,0,1-3.32,10.88,20.61,20.61,0,0,1-4.5,4.68,19.21,19.21,0,0,1-7.39,3.42l-.22,0C125.16,106.66,125.21,106.63,125.27,106.61Z"/><line class="cls-4" x1="101.35" y1="84.45" x2="115.13" y2="82.74"/><line class="cls-4" x1="108.08" y1="75.12" x2="115.03" y2="78.23"/><line class="cls-4" x1="118.19" y1="75.28" x2="113.33" y2="64.97"/><line class="cls-4" x1="160.86" y1="88" x2="147.06" y2="89.51"/><line class="cls-4" x1="153.99" y1="97.23" x2="147.09" y2="94.03"/><line class="cls-4" x1="143.88" y1="96.93" x2="148.6" y2="107.31"/><path class="cls-3" d="M216.26,35.94a9.28,9.28,0,0,0,6.64.76l.11,0,0,0a4.67,4.67,0,0,1-2.77-4.49,4.72,4.72,0,0,0,1.68.66c.07,0,.14,0,.22,0a4.47,4.47,0,0,1-1.68-5.45A4.55,4.55,0,0,0,222,28.53c.1.07.11.07.15,0a4.45,4.45,0,0,1,1-6,.58.58,0,0,1,.1.21,12.94,12.94,0,0,0,5.4,6.79c.44.28.91.52,1.37.76.14.07.18,0,.2-.11a4.5,4.5,0,0,1,5.38-3.53,4.54,4.54,0,0,1,3.28,2.64.27.27,0,0,0,.23.17,9.49,9.49,0,0,0,2.66.07c.06,0,.13,0,.17,0s0,.12-.08.16a4.56,4.56,0,0,1-2.57,1.35,6.46,6.46,0,0,0,1.31.26,8.32,8.32,0,0,0,1.34.06,7.27,7.27,0,0,1-1.08.64,9.34,9.34,0,0,1-1.72.64.26.26,0,0,0-.22.18,12.81,12.81,0,0,1-6.64,7.26,12,12,0,0,1-7.63,1,13.91,13.91,0,0,1-4.14-1.46,12.89,12.89,0,0,1-4.17-3.6l-.09-.11C216.19,35.89,216.22,35.91,216.26,35.94Z"/><line class="cls-4" x1="223.2" y1="15.01" x2="228.11" y2="23.01"/><line class="cls-4" x1="230.83" y1="16.54" x2="230.86" y2="21.69"/><line class="cls-4" x1="233.57" y1="22.81" x2="238.55" y2="16.92"/><line class="cls-4" x1="237.68" y1="52.64" x2="232.88" y2="44.57"/><line class="cls-4" x1="230.07" y1="51" x2="230.11" y2="45.85"/><line class="cls-4" x1="227.43" y1="44.69" x2="222.36" y2="50.5"/><path class="cls-3" d="M122,146.86a12.86,12.86,0,0,0,3.94-5.58.36.36,0,0,0,0-.09v0c-1.64,1.39-3.2,1.86-4.74,1.4a6.63,6.63,0,0,0,1.34-1.3.44.44,0,0,0,.12-.19c-2.32,1.59-4.21,1.09-4.88.24a6.42,6.42,0,0,0,1.61-1c.1-.08.11-.09.1-.14-2.25.73-3.86-.36-4-2.14a.51.51,0,0,1,.2,0,15.46,15.46,0,0,0,7.78-3.17c.43-.31.85-.66,1.26-1,.12-.1.11-.14,0-.19-1.58-.91-1.53-3.42.13-5.43a6.11,6.11,0,0,1,3.63-2.25.36.36,0,0,0,.24-.16,12.38,12.38,0,0,0,1.4-2.28s0-.13.1-.15.07.06.08.11a4,4,0,0,1-.31,2.51,10.08,10.08,0,0,0,.86-1.07,12.61,12.61,0,0,0,.73-1.15,7.51,7.51,0,0,1-.08,1.08,9.05,9.05,0,0,1-.41,1.63c0,.1,0,.17,0,.23,1.81,1.79,2.46,4.26,2,7.34a14.86,14.86,0,0,1-3.15,6.82,20.49,20.49,0,0,1-3.2,3.25,17.19,17.19,0,0,1-4.78,2.81l-.14.06S122,146.88,122,146.86Z"/><line class="cls-4" x1="111.34" y1="132.63" x2="119.24" y2="131.64"/><line class="cls-4" x1="115.2" y1="127.24" x2="119.19" y2="129.03"/><line class="cls-4" x1="121" y1="127.33" x2="118.21" y2="121.37"/><line class="cls-4" x1="145.48" y1="134.68" x2="137.56" y2="135.56"/><line class="cls-4" x1="141.54" y1="140.02" x2="137.58" y2="138.17"/><line class="cls-4" x1="135.74" y1="139.85" x2="138.45" y2="145.84"/><path class="cls-3" d="M79.5,122a6.06,6.06,0,0,0,4,1.75h.1a3,3,0,0,1-.84-3.31,3,3,0,0,0,.91.73.17.17,0,0,0,.13,0,2.89,2.89,0,0,1,0-3.69,3.18,3.18,0,0,0,.69,1c0,.06.06.06.1,0a2.87,2.87,0,0,1,1.74-3.52.23.23,0,0,1,0,.14,8.42,8.42,0,0,0,2,5.25,9.69,9.69,0,0,0,.7.73c.07.07.1,0,.14,0a2.92,2.92,0,0,1,4-1.14,3,3,0,0,1,1.52,2.27.16.16,0,0,0,.11.15,5.92,5.92,0,0,0,1.63.55s.09,0,.1,0,0,.06-.08.08a3,3,0,0,1-1.85.34,4.38,4.38,0,0,0,.76.41,5.61,5.61,0,0,0,.82.3,5.05,5.05,0,0,1-.8.18,5.16,5.16,0,0,1-1.18.06.19.19,0,0,0-.17.08,8.34,8.34,0,0,1-5.51,3.2,7.78,7.78,0,0,1-4.91-.86,8.81,8.81,0,0,1-2.28-1.7,8.53,8.53,0,0,1-1.88-3l0-.09S79.49,122,79.5,122Z"/><line class="cls-4" x1="87.84" y1="110.43" x2="89.33" y2="116.33"/><line class="cls-4" x1="92.27" y1="112.85" x2="91.29" y2="116.04"/><line class="cls-4" x1="92.75" y1="117.26" x2="96.96" y2="114.58"/><line class="cls-4" x1="89.52" y1="136.5" x2="88.11" y2="130.58"/><line class="cls-4" x1="85.13" y1="134.01" x2="86.15" y2="130.84"/><line class="cls-4" x1="84.72" y1="129.6" x2="80.46" y2="132.21"/><path class="cls-3" d="M179.08,81.71a13.72,13.72,0,0,0,1,9.83s0,.1.08.14a.12.12,0,0,0,.05,0,6.88,6.88,0,0,1,5.61-5.42,6.93,6.93,0,0,0-.42,2.63c0,.11,0,.23,0,.32a6.6,6.6,0,0,1,7.34-4.14,7,7,0,0,0-1.21,2.51c-.06.17-.06.19,0,.24a6.56,6.56,0,0,1,8.95-.52.8.8,0,0,1-.28.2,19.27,19.27,0,0,0-8.1,10,21,21,0,0,0-.66,2.22c-.05.23,0,.26.22.25a6.76,6.76,0,0,1,4,12.23.4.4,0,0,0-.17.39,14,14,0,0,0,.74,3.85c0,.08.11.18,0,.26s-.19,0-.26-.08a6.69,6.69,0,0,1-2.76-3.27,10.72,10.72,0,0,0,0,2,15.24,15.24,0,0,0,.34,2,11.28,11.28,0,0,1-1.26-1.37,13,13,0,0,1-1.46-2.28.42.42,0,0,0-.34-.26,19,19,0,0,1-12.58-7.3,17.74,17.74,0,0,1-3.84-10.7,20.3,20.3,0,0,1,.8-6.44,19.14,19.14,0,0,1,3.88-7.16l.13-.18C179.14,81.6,179.11,81.65,179.08,81.71Z"/><line class="cls-4" x1="211.51" y1="85.13" x2="201.49" y2="94.75"/><line class="cls-4" x1="211.7" y1="96.64" x2="204.27" y2="98.31"/><line class="cls-4" x1="203.51" y1="102.57" x2="213.57" y2="107.91"/><line class="cls-4" x1="161.71" y1="117.92" x2="171.86" y2="108.44"/><line class="cls-4" x1="161.69" y1="106.41" x2="169.13" y2="104.85"/><line class="cls-4" x1="169.96" y1="100.6" x2="159.97" y2="95.11"/><path class="cls-3" d="M97.94,27.87a13.64,13.64,0,0,0,7,6.93l.15.07h.07a6.88,6.88,0,0,1,.86-7.75,6.87,6.87,0,0,0,1.36,2.3c.07.07.12.19.24.21a6.61,6.61,0,0,1,3-7.87,7,7,0,0,0,.68,2.7c.05.17.06.18.17.17a6.56,6.56,0,0,1,6.56-6.11.89.89,0,0,1-.08.33,19.16,19.16,0,0,0,.1,12.83,20,20,0,0,0,.9,2.13c.1.21.18.2.33.06a6.65,6.65,0,0,1,9.48.79,6.73,6.73,0,0,1,1.41,6.07.4.4,0,0,0,.11.41,14.26,14.26,0,0,0,3,2.5c.08,0,.2.07.19.17s-.15.1-.24.11a6.77,6.77,0,0,1-4.22-.76,11.19,11.19,0,0,0,1.28,1.49,15.18,15.18,0,0,0,1.51,1.29,10.48,10.48,0,0,1-1.84-.25,12.3,12.3,0,0,1-2.58-.82.4.4,0,0,0-.42,0,19,19,0,0,1-14.35,2.39,17.83,17.83,0,0,1-9.78-5.79A20.33,20.33,0,0,1,99.42,36a19.09,19.09,0,0,1-1.58-8v-.22C97.91,27.75,97.93,27.81,97.94,27.87Z"/><line class="cls-4" x1="125.1" y1="9.84" x2="123.52" y2="23.63"/><line class="cls-4" x1="132.58" y1="18.58" x2="127.93" y2="24.6"/><line class="cls-4" x1="130.05" y1="28.37" x2="141.21" y2="26.07"/><line class="cls-4" x1="107.65" y1="66.84" x2="109.42" y2="53.07"/><line class="cls-4" x1="100.29" y1="57.99" x2="105.02" y2="52.04"/><line class="cls-4" x1="102.96" y1="48.24" x2="91.76" y2="50.38"/><path class="cls-3" d="M188.2,132.06a9.33,9.33,0,0,0-5.77,3.37l-.07.09s0,0,0,0a4.63,4.63,0,0,1,4.9,1.93,4.49,4.49,0,0,0-1.73.48c-.07,0-.15,0-.19.12a4.48,4.48,0,0,1,4.61,3.36,4.81,4.81,0,0,0-1.89,0c-.12,0-.13,0-.13.08a4.44,4.44,0,0,1,2.82,5.37.78.78,0,0,1-.2-.11,13,13,0,0,0-8.39-2.21,13.45,13.45,0,0,0-1.55.22c-.16,0-.16.08-.1.2a4.49,4.49,0,0,1-2.19,6.05,4.54,4.54,0,0,1-4.21-.15.28.28,0,0,0-.29,0,9.4,9.4,0,0,0-2.17,1.54s-.08.12-.14.09,0-.12,0-.18a4.58,4.58,0,0,1,1.24-2.62,6.68,6.68,0,0,0-1.2.58,9,9,0,0,0-1.11.75,7.22,7.22,0,0,1,.49-1.16,9,9,0,0,1,1-1.54.24.24,0,0,0,.06-.28,12.83,12.83,0,0,1,1-9.78,12,12,0,0,1,5.51-5.37,13.81,13.81,0,0,1,4.19-1.31,12.94,12.94,0,0,1,5.5.38l.14,0C188.29,132.07,188.24,132.07,188.2,132.06Z"/><line class="cls-4" x1="195.17" y1="152.99" x2="186.45" y2="149.52"/><line class="cls-4" x1="188.14" y1="156.33" x2="185.03" y2="152.23"/><line class="cls-4" x1="182.2" y1="152.95" x2="181.73" y2="160.64"/><line class="cls-4" x1="161.04" y1="131.51" x2="169.72" y2="135.11"/><line class="cls-4" x1="168.12" y1="128.27" x2="171.17" y2="132.42"/><line class="cls-4" x1="174.02" y1="131.74" x2="174.59" y2="124.05"/><path class="cls-3" d="M161.63,31.3a12.88,12.88,0,0,0,.17,6.82l0,.1,0,0c.47-2.09,1.44-3.41,2.95-4a6.65,6.65,0,0,0-.29,1.84.59.59,0,0,0,0,.23c.91-2.67,2.72-3.4,3.77-3.13a6.7,6.7,0,0,0-.68,1.8c0,.11,0,.12,0,.16,1.35-1.93,3.3-2,4.44-.65a.41.41,0,0,1-.14.15,15.41,15.41,0,0,0-4.33,7.2c-.16.51-.29,1-.4,1.57,0,.16,0,.18.1.17,1.81-.22,3.27,1.82,3.14,4.42a6.12,6.12,0,0,1-1.55,4,.34.34,0,0,0-.1.27A13,13,0,0,0,169,55c0,.05.05.12,0,.17s-.09,0-.13,0a4,4,0,0,1-1.26-2.19,13.21,13.21,0,0,0,.06,2.72,6.94,6.94,0,0,1-.58-.91,8.48,8.48,0,0,1-.65-1.54c0-.11-.07-.16-.16-.17-2.52-.36-4.52-1.94-6-4.69A14.85,14.85,0,0,1,158.78,41a19.83,19.83,0,0,1,.61-4.52,17.61,17.61,0,0,1,2.15-5.12l.07-.12S161.64,31.26,161.63,31.3Z"/><line class="cls-4" x1="178.71" y1="36.29" x2="172.97" y2="41.82"/><line class="cls-4" x1="178.84" y1="42.93" x2="174.57" y2="43.87"/><line class="cls-4" x1="174.14" y1="46.33" x2="179.94" y2="49.43"/><line class="cls-4" x1="150.13" y1="55.09" x2="155.95" y2="49.65"/><line class="cls-4" x1="150.09" y1="48.46" x2="154.37" y2="47.57"/><line class="cls-4" x1="154.84" y1="45.12" x2="149.08" y2="41.94"/><path class="cls-3" d="M204.12,54.74a6,6,0,0,0-4.22,1l-.06,0,0,0a3,3,0,0,1,2.66,2.15,2.9,2.9,0,0,0-1.17,0,.16.16,0,0,0-.13,0,2.89,2.89,0,0,1,2.19,3,2.81,2.81,0,0,0-1.15-.39c-.08,0-.09,0-.1,0a2.86,2.86,0,0,1,.7,3.86.36.36,0,0,1-.1-.11,8.41,8.41,0,0,0-4.76-3,8.7,8.7,0,0,0-1-.17c-.1,0-.12,0-.1.11a3,3,0,0,1-5.1,2.41.19.19,0,0,0-.18-.06,6.29,6.29,0,0,0-1.64.53s-.07.06-.1,0,0-.08,0-.12a3,3,0,0,1,1.28-1.37,4.69,4.69,0,0,0-.86.12,6,6,0,0,0-.83.25,4.66,4.66,0,0,1,.53-.62,5.56,5.56,0,0,1,.91-.76.17.17,0,0,0,.09-.16,8.31,8.31,0,0,1,2.5-5.86,7.74,7.74,0,0,1,4.44-2.25,8.52,8.52,0,0,1,2.85,0,8.31,8.31,0,0,1,3.32,1.3l.08,0S204.14,54.75,204.12,54.74Z"/><line class="cls-4" x1="204.38" y1="69.02" x2="199.66" y2="65.19"/><line class="cls-4" x1="199.39" y1="69.73" x2="198.26" y2="66.59"/><line class="cls-4" x1="196.37" y1="66.49" x2="194.59" y2="71.15"/><line class="cls-4" x1="187.43" y1="49.14" x2="192.1" y2="53.04"/><line class="cls-4" x1="192.43" y1="48.51" x2="193.52" y2="51.66"/><line class="cls-4" x1="195.41" y1="51.79" x2="197.25" y2="47.15"/><path class="cls-3" d="M227.8,69.81a6,6,0,0,0,.48,4.3l0,.06s0,0,0,0a3,3,0,0,1,2.44-2.39,3.07,3.07,0,0,0-.18,1.15s0,.1,0,.14a2.91,2.91,0,0,1,3.2-1.85,3,3,0,0,0-.52,1.11c0,.08,0,.08,0,.1a2.88,2.88,0,0,1,3.92-.26.54.54,0,0,1-.12.09,8.39,8.39,0,0,0-3.51,4.39c-.11.32-.2.65-.28,1,0,.1,0,.11.1.11a2.91,2.91,0,0,1,3,2.88,3,3,0,0,1-1.19,2.46.18.18,0,0,0-.08.17,6.35,6.35,0,0,0,.34,1.68s0,.08,0,.12-.08,0-.11,0a3,3,0,0,1-1.23-1.43,4.81,4.81,0,0,0,0,.86,7.07,7.07,0,0,0,.15.86,5,5,0,0,1-.55-.59,5.53,5.53,0,0,1-.65-1,.21.21,0,0,0-.15-.11,8.33,8.33,0,0,1-5.55-3.14,7.84,7.84,0,0,1-1.73-4.68,8.94,8.94,0,0,1,.33-2.82,8.37,8.37,0,0,1,1.67-3.16l.06-.07S227.81,69.78,227.8,69.81Z"/><line class="cls-4" x1="242.02" y1="71.17" x2="237.67" y2="75.43"/><line class="cls-4" x1="242.15" y1="76.21" x2="238.9" y2="76.98"/><line class="cls-4" x1="238.59" y1="78.85" x2="243.02" y2="81.14"/><line class="cls-4" x1="220.34" y1="85.75" x2="224.74" y2="81.55"/><line class="cls-4" x1="220.28" y1="80.7" x2="223.53" y2="79.99"/><line class="cls-4" x1="223.88" y1="78.12" x2="219.48" y2="75.76"/><path d="M492.12,251.8c3.22,0,3.22-5,0-5s-3.22,5,0,5Z"/><path d="M494.81,249.45c3.22,0,3.22-5,0-5s-3.22,5,0,5Z"/><path d="M490.1,253.15c3.22,0,3.22-5,0-5s-3.22,5,0,5Z"/><text class="cls-5" transform="translate(124.31 490.39)">GA<tspan class="cls-6" x="78.51" y="0">Z</tspan><tspan class="cls-7" x="113.17" y="0">OUIL</tspan><tspan class="cls-8" x="248.13" y="0">L</tspan><tspan class="cls-9" x="278.54" y="0">OI</tspan><tspan class="cls-10" x="341.87" y="0">R</tspan><tspan class="cls-9" x="379.23" y="0">E</tspan></text><path d="M444.71,21c-18-15-75.39,24-128.13,87.17-45.39,54.39-72.53,108.92-67.73,132.66C187.47,304.49,14.76,559.25,11.6,565.47c-3.27,6.45-1.68,11.3,6.44,3.27s208.1-285.1,238.57-317.15c20.66,9.45,75-28.78,125.25-88.94C434.6,99.46,462.74,36,444.71,21Zm-68.8,129.77c-48.21,57.76-105,93.65-114.4,85.77s12.27-61.45,60.47-119.2,105.2-98.05,114.65-90.17S424.11,93,375.91,150.77Z"/></svg>